<svg xmlns="http://www.w3.org/2000/svg" width="276" height="184" viewBox="0 0 276 184"><g fill="none" fill-rule="evenodd"><path fill="#FFF" d="M108.516 3.377L96.887 4.93l-4.07 10.287-7.947 6.987 4.264 5.443 13.955-.785-1.814 6.056-23.576 23.648-3.295 18.602 15.312 23.315 46.323 7.569 49.23-35.511-2.52-11.84-5.427-10.869-6.008-6.017 4.652-10.287-.97-8.936 3.877-4.464-8.916-15.139-9.885 2.717-10.078 7.958-24.74.963-12.055-10.31z"/><path fill="#F3BD48" d="M256.618 108.397v-1.887l18.552.148c.14-1.297.272-2.601.404-3.882H5.807c-.085 1.281-.178 2.57-.264 3.882l13.59-.109v1.887l-13.706.124c-.07 1.102-.147 2.197-.225 3.292l13.955-.264v1.886c-4.698.099-9.391.207-14.079.327l-.21 2.996c4.761-.145 9.521-.284 14.281-.419v1.887c-4.806.145-9.61.305-14.412.481l-.21 3.051c4.87-.207 9.74-.401 14.615-.582v1.886c-4.92.202-9.83.417-14.73.645-1.308 16.412-2.6 32.975-3.877 49.688v.434c0 5.815 3.38 11.312 12.893 9.643a688.707 688.707 0 0 1 10.931-1.77 33.307 33.307 0 0 0 13.382-4.853c2.38 2.027 5.869 2.819 10.257 2.275a27.411 27.411 0 0 0 9.543-3.26c1.97 1.125 4.838 1.692 8.823 1.304a37.296 37.296 0 0 0 11.428-3.106 16.693 16.693 0 0 0 7.047.839 823.21 823.21 0 0 1 22.018-1.258l.07-.318c1.214.169 2.442.226 3.667.17 7.34-.274 14.686-.437 22.041-.489l.054-.287c1.218.192 2.45.283 3.683.272 3.83 0 7.66.02 11.49.062 7.714.1 13.838-1.902 18.234-6.133 2.954 3.882 8.637 8.058 19.382 8.75 7.753.504 13.885-1.367 18.7-5.994.1-.101.21-.202.31-.31 4.086 5.17 10.738 8.446 19.498 9.479 3.609.451 7.263.391 10.854-.179l1.915.59a100.264 100.264 0 0 0 13.645 3.176c14.211 2.329 22.32-3.665 22.32-16.98 0-6.11-3.302-12.22-6.884-17.716l-1.636-2.516 7.327.683 2.1-22.08a2668.77 2668.77 0 0 0-16.9-.737v-1.887c5.685.207 11.37.435 17.056.683.1-1.017.194-2.034.294-3.05-5.788-.208-11.582-.402-17.381-.583V116.4c5.85.16 11.706.334 17.567.52l.28-3.004c-5.95-.145-11.893-.285-17.832-.42v-1.878c6.016.103 12.03.217 18.04.342.11-1.103.21-2.205.31-3.308-6.16-.103-12.308-.189-18.443-.256z"/><path fill="#A30046" fill-rule="nonzero" d="M29.36 128.8c11.52-.039 13.071 6.638 13.056 9.992 0 7.034-4.551 10.256-7.94 12.018 3.148 1.514 6.815 5.085 6.8 10.466 0 6.793-4.047 13.656-17.01 15.682a851.744 851.744 0 0 0-10.931 1.763c-4.931.846-7.389-.878-7.389-5.093a15762.78 15762.78 0 0 1 3.543-44.673l19.87-.155zm-3.101 27.67l-4.652.427c-.258 3.354-.517 6.718-.775 10.093l4.574-.567.868-9.953h-.015zm1.325-17.36l-4.434.171c-.264 3.064-.522 6.136-.775 9.216l4.357-.288c.268-3.053.558-6.086.868-9.099h-.016z"/><path fill="#FFF" fill-rule="nonzero" d="M24.259 178.34c-3.618.575-7.26 1.178-10.924 1.81-7.706 1.381-8.854-3.324-8.854-6.29v-.116c1.21-15.6 2.424-31.01 3.644-46.233l21.243-.085c13.52 0 14.536 8.656 14.52 11.312 0 5.116-2.27 9.09-6.698 12.026a12.667 12.667 0 0 1 5.559 10.372c0 4.402-1.876 14.565-18.49 17.204zm-16.847-4.883c0 2.26.713 4.697 5.93 3.827 3.619-.6 7.26-1.172 10.924-1.715 12.785-1.934 15.506-8.68 15.506-14.154a10.52 10.52 0 0 0-6.086-9.394l-2.326-1.11 2.45-1.265c3.04-1.553 7.078-4.325 7.11-10.808 0-3.276-1.474-8.757-11.63-8.672l-18.436.264c-1.153 14.203-2.3 28.558-3.442 43.066v-.04zm19.382-5.823c-2.502.305-5.003.624-7.505.955.326-4.332.654-8.654.985-12.965 2.535-.233 5.078-.458 7.613-.668-.362 4.208-.726 8.434-1.093 12.678zm-4.342-2.244l1.636-.194c.202-2.406.406-4.805.612-7.197l-1.69.163-.558 7.228zm5.667-15.9l-7.303.52c.336-4.037.672-8.06 1.008-12.072l7.404-.256c-.372 3.928-.742 7.864-1.109 11.808zm-4.116-2.492l1.418-.085c.194-2.12.396-4.247.59-6.359l-1.466.062c-.175 2.128-.356 4.255-.542 6.382z"/><path fill="#A30046" d="M58.34 128.606c-1.086 11.49-2.168 23.06-3.249 34.711l4.443-.38a95884.21 95884.21 0 0 1 3.318-34.354l15.289-.07a31577.46 31577.46 0 0 0-3.319 33.283l3.101-.202-.868 7.655a31.064 31.064 0 0 1-10.792 3.206c-3.24.31-6.923-.062-6.907-2.903v-.52a23.469 23.469 0 0 1-11.46 5.372c-3.224.388-8.333.404-8.302-6.855 1.178-13.059 2.356-25.998 3.535-38.819l15.21-.124z"/><path fill="#FFF" fill-rule="nonzero" d="M66.256 173.674c-4.125.412-6.978-.388-7.955-2.236a25.262 25.262 0 0 1-10.404 4.24c-8.117 1.063-9.792-3.727-9.776-7.99v-.1c1.209-13.535 2.424-26.935 3.643-40.201l18.165-.047c-1.08 11.444-2.163 22.968-3.248 34.572l1.488-.124c1.117-11.589 2.225-23.076 3.326-34.463h18.25a15995.13 15995.13 0 0 0-3.318 33.174l3.101-.186c-.356 3.183-.718 6.374-1.085 9.573l-.66.364a32.838 32.838 0 0 1-11.535 3.455l.008-.03zm-5.427-7.725v3.432c0 2.112 3.798 1.956 5.427 1.801a29.429 29.429 0 0 0 9.38-2.608c.217-1.887.427-3.774.644-5.66l-3.101.217c1.111-11.195 2.217-22.323 3.318-33.384-4.109 0-8.218.055-12.32.093-1.11 11.335-2.22 22.753-3.325 34.254-2.466.212-4.931.432-7.396.66 1.075-11.708 2.157-23.328 3.248-34.86l-12.25.117c-1.147 12.36-2.29 24.828-3.426 37.406 0 5.753 3.45 6.07 6.838 5.667a21.431 21.431 0 0 0 10.443-4.89c.83-.777 1.667-1.5 2.496-2.237l.024-.008z"/><path fill="#A30046" d="M84.738 170.204c-4.985.357-7.458-1.359-7.442-4.72 1.23-12.422 2.465-24.749 3.705-36.979l15.583-.054a22986.15 22986.15 0 0 0-3.512 31.761c3.732-.17 7.456-.32 11.172-.45l-2.14 9.425c-5.788.274-11.577.613-17.366 1.017z"/><path fill="#FFF" fill-rule="nonzero" d="M103.337 170.305c-6.202.284-12.404.65-18.607 1.094-5.69.427-8.93-1.653-8.915-5.807v-.1c1.271-12.816 2.543-25.548 3.814-38.198h18.56l-3.504 31.684c3.778-.16 7.554-.3 11.327-.42-.894 3.913-1.788 7.836-2.683 11.77l.008-.023zm-24.568-4.876c0 1.048.077 3.983 5.977 3.572a695.638 695.638 0 0 1 16.118-.932l1.605-7.073c-3.665.14-7.334.3-11.01.481a20731.32 20731.32 0 0 1 3.513-31.83l-12.614.07c-1.194 11.831-2.39 23.735-3.59 35.712z"/><path fill="#A30046" d="M110.485 168.837c-4.985.187-7.473-1.552-7.466-4.782 1.225-11.904 2.442-23.78 3.652-35.628h15.59a80843.953 80843.953 0 0 0-3.441 30.97c3.72-.073 7.445-.122 11.171-.148l-2.116 9.224a590.2 590.2 0 0 0-17.39.364z"/><path fill="#FFF" fill-rule="nonzero" d="M129.108 169.567c-6.203.073-12.405.22-18.607.443-5.699.21-8.955-1.902-8.94-5.893v-.093c1.257-12.308 2.513-24.564 3.769-36.769h18.552a283308.22 283308.22 0 0 1-3.434 30.938c3.778-.062 7.556-.103 11.334-.124-.884 3.835-1.77 7.67-2.659 11.506l-.015-.008zM104.5 164.04c0 1.018.085 3.882 5.993 3.634 5.37-.186 10.75-.313 16.141-.38.528-2.33 1.063-4.597 1.55-6.895-3.674.031-7.349.088-11.024.171 1.158-10.352 2.308-20.688 3.45-31.008h-12.613a50429.77 50429.77 0 0 0-3.536 34.447l.04.031z"/><path fill="#A30046" fill-rule="nonzero" d="M151.32 128.404c14.233 0 16.443 8.734 16.466 15.908 0 7.585-1.69 15.186-5.535 19.456-3.233 3.175-7.846 4.798-14.498 4.658-3.83-.052-7.66-.078-11.49-.078-4.992 0-7.481-1.661-7.481-4.96 1.194-11.688 2.383-23.362 3.566-35.023l18.971.04zm.62 8.672h-4.978c-.77 7.572-1.545 15.142-2.326 22.709l5.063.054c.75-7.577 1.501-15.165 2.256-22.763h-.015z"/><path fill="#FFF" fill-rule="nonzero" d="M147.753 169.614c-3.83-.052-7.66-.08-11.49-.086-7.807 0-8.97-3.788-8.962-6.094v-.093c1.23-12.04 2.458-24.07 3.683-36.094h20.335c11.87 0 17.91 5.738 17.948 17.08 0 8.657-2.085 16.001-5.791 20.124l-.055.054c-3.667 3.587-8.791 5.202-15.668 5.093v.016zm-17.506-6.165c0 1.786.721 3.79 6 3.774 3.83 0 7.66.028 11.49.085 5.962.085 10.195-1.234 13.304-4.262 3.31-3.711 5.272-10.73 5.249-18.757 0-10.039-4.791-14.751-14.978-14.751h-17.615c-1.147 11.288-2.297 22.587-3.45 33.896v.015zm20.816-2.445a689.956 689.956 0 0 0-8.04-.093c.864-8.328 1.717-16.666 2.56-25.015h7.938c-.811 8.37-1.63 16.728-2.458 25.077v.03zm-4.83-2.376h2.086a8284.67 8284.67 0 0 0 2.008-20.426h-2.008c-.698 6.811-1.393 13.615-2.086 20.41v.016z"/><path fill="#A30046" fill-rule="nonzero" d="M173.702 133.132c3.876-3.99 8.411-5.698 15.11-5.683 15.885-.046 17.521 11.754 17.552 18.105 0 7.166-1.651 16.84-6.528 21.265-3.372 3.059-7.752 4.72-14.459 4.254-16.536-1.079-18.234-11.04-18.25-18.182-.015-6.087 1.768-14.751 6.575-19.759zm16.66 4.41l-4.97-.093a12268.11 12268.11 0 0 1-2.17 23.446l4.985.264c.719-7.841 1.437-15.714 2.155-23.617z"/><path fill="#FFF" fill-rule="nonzero" d="M185.385 172.277c-19.684-1.305-19.723-14.821-19.738-19.41 0-6.14 1.783-15.139 6.876-20.45 4.195-4.292 9.063-6.163 16.281-6.163 8.637 0 18.956 3.276 19.033 19.37 0 7.593-1.752 17.445-6.876 22.088-4.04 3.649-8.994 5.03-15.584 4.573l.008-.008zm3.435-43.625c-6.296 0-10.335 1.507-13.955 5.21-4.652 4.852-6.28 13.284-6.265 19.068 0 7.5 1.954 16 16.762 16.948 5.745.38 9.854-.777 13.335-3.936 4.651-4.185 6.202-13.657 6.202-20.45-.054-11.172-5.427-16.84-16.072-16.84h-.007zm.775 33.788a825.78 825.78 0 0 0-7.947-.427c.801-8.566 1.597-17.158 2.388-25.775l7.931.124c-.79 8.726-1.581 17.419-2.372 26.078zm-4.76-2.655l2.008.1c.65-7.033 1.3-14.09 1.946-21.17h-2.008c-.652 7.054-1.3 14.09-1.946 21.109v-.039z"/><path fill="#A30046" d="M239.22 139.49c-5.292-.201-10.584-.385-15.877-.55a12763.65 12763.65 0 0 1-2.07 24.65c1.706.154 3.411.31 5.109.48l.651-7.654-2.783-.21c.233-3.199.468-6.4.706-9.604 5.339.275 10.678.575 16.017.9-.698 8.339-1.393 16.62-2.086 24.845-3.45 1.956-8.846 2.756-15.01 2.01-16.396-1.987-18.606-11.715-18.668-18.19-.039-7.717 1.427-16.257 7.652-22.32 4.117-3.882 9.528-6.134 17.211-6.11 3.435.017 6.862.355 10.234 1.009a9339.87 9339.87 0 0 1-1.085 10.745z"/><path fill="#FFF" fill-rule="nonzero" d="M223.878 175.677c-13.11-1.669-20.095-8.245-20.157-19.572-.047-10.31 2.573-17.771 8.008-23.074 4.605-4.363 10.59-6.583 18.328-6.583 3.549.003 7.09.341 10.575 1.009l1.256.272-1.334 13.16c-5.277-.218-10.56-.42-15.847-.606l-.418 4.984c6.093.295 12.185.618 18.273.97-.76 9.068-1.517 18.077-2.271 27.026-.171.1-.342.202-.52.295-3.876 2.197-9.668 2.888-15.9 2.12h.007zm6.202-46.582c-6.93-.047-12.048 1.809-16.11 5.652-4.939 4.829-7.327 11.809-7.28 21.56.046 10.093 5.683 15.426 17.188 16.8 5.318.63 10.226.086 13.598-1.622.636-7.52 1.274-15.09 1.915-22.709-4.347-.28-8.693-.538-13.04-.776-.176 2.35-.349 4.7-.52 7.05l2.792.209c-.29 3.431-.577 6.855-.861 10.271-2.688-.269-5.378-.528-8.07-.776.76-8.98 1.521-18.02 2.286-27.119 5.303.155 10.604.318 15.901.49.287-2.75.566-5.497.845-8.261a58.214 58.214 0 0 0-8.644-.777v.008zm-7.21 33.384l2.155.194c.14-1.685.28-3.362.427-5.046l-2.163-.171-.419 5.023z"/><path fill="#A30046" d="M266.356 140.64c-3.556-.171-7.115-.332-10.676-.482-.093.816-.194 1.623-.295 2.438a565.58 565.58 0 0 1 5.8 8.61c3.527 5.35 5.923 10.155 5.93 14.425 0 13.726-10.38 13.439-16.823 12.422a96.262 96.262 0 0 1-12.599-2.974c.29-3.447.577-6.904.86-10.372 4.102.443 8.211.916 12.305 1.413.1-.776.201-1.63.294-2.453a660.528 660.528 0 0 0-6.977-10.326c-2.42-3.478-4.388-7.717-4.396-10.947-.047-13.074 10.412-14.254 17.188-14.23 3.473.03 6.941.29 10.38.776-.34 3.928-.671 7.828-.991 11.7z"/><path fill="#FFF" fill-rule="nonzero" d="M250.292 179.45a98.98 98.98 0 0 1-12.87-3.105l-1.295-.404c.357-4.239.706-8.478 1.062-12.74 4.135.424 8.255.877 12.358 1.359 0-.241.055-.49.086-.73a600.171 600.171 0 0 0-6.699-9.837c-2.9-4.161-4.651-8.47-4.651-11.645-.062-15.528 14.024-15.59 18.653-15.582a80.44 80.44 0 0 1 10.629.776l1.341.225c-.398 4.83-.798 9.635-1.202 14.418-3.566-.187-7.135-.368-10.706-.544l-.085.683a498.16 498.16 0 0 1 5.48 8.176c3.218 4.875 6.203 10.286 6.203 15.333 0 7.764-3.155 16.242-18.289 13.625l-.015-.008zm-11.033-5.256a92.147 92.147 0 0 0 11.033 2.47c10.342 1.653 15.35-1.903 15.35-11.22 0-4.207-2.721-9.075-5.675-13.531a596.081 596.081 0 0 0-6.109-9.037l.512-4.185c3.545.135 7.088.277 10.629.427.248-2.95.506-5.91.775-8.882a83.173 83.173 0 0 0-8.8-.644c-7.334-.054-15.753 1.39-15.714 12.88 0 2.67 1.589 6.537 4.132 10.201 2.44 3.525 4.879 7.133 7.319 10.823-.171 1.398-.339 2.795-.504 4.192a976.936 976.936 0 0 0-12.258-1.475c-.217 2.663-.441 5.326-.659 7.981h-.03z"/><path fill="#A30046" fill-rule="nonzero" d="M29.368 128.878c11.513 0 13.063 6.669 13.055 10.015 0 6.987-4.558 10.24-7.946 12.003 3.147 1.506 6.822 5.07 6.799 10.434 0 6.785-4.047 13.64-17.002 15.745a814.396 814.396 0 0 0-10.924 1.824c-4.93.885-7.396-.83-7.396-5.07a13764.81 13764.81 0 0 1 3.535-44.874l19.879-.077zm-3.101 27.677l-4.652.443c-.253 3.354-.512 6.718-.775 10.093l4.574-.583c.294-3.297.581-6.604.86-9.922l-.007-.03zm1.325-17.367l-4.434.17-.776 9.224 4.357-.287c.295-3.023.582-6.048.861-9.076l-.008-.031z"/><path fill="#A30046" d="M58.348 128.816c-1.086 11.428-2.171 22.944-3.257 34.548l4.443-.396c1.111-11.475 2.22-22.861 3.326-34.16h15.28c-1.1 10.936-2.206 21.943-3.318 33.019l3.101-.21c-.286 2.523-.581 5.054-.868 7.578a31.11 31.11 0 0 1-10.792 3.16c-3.24.326-6.93 0-6.915-2.858v-.512a23.771 23.771 0 0 1-11.459 5.396c-3.233.411-8.334.45-8.303-6.801 1.178-13.043 2.36-25.957 3.543-38.741l15.219-.023z"/><path fill="#A30046" d="M84.73 170.095c-4.977.373-7.458-1.312-7.442-4.658 1.24-12.313 2.478-24.541 3.713-36.684h15.583a65836.992 65836.992 0 0 1-3.512 31.443c3.722-.176 7.446-.328 11.172-.458a6050.39 6050.39 0 0 1-2.147 9.317c-5.789.274-11.578.62-17.367 1.04z"/><path fill="#A30046" d="M110.485 168.69c-4.993.186-7.473-1.553-7.466-4.72l3.66-35.248h15.583a68301.07 68301.07 0 0 0-3.442 30.605c3.72-.073 7.445-.122 11.171-.148l-2.116 9.092c-5.8.067-11.596.207-17.39.419z"/><path fill="#A30046" fill-rule="nonzero" d="M151.32 128.715c14.233 0 16.443 8.625 16.466 15.721 0 7.508-1.69 15.023-5.527 19.239-3.241 3.105-7.854 4.728-14.506 4.658-3.83-.057-7.66-.086-11.49-.086-4.992 0-7.481-1.638-7.481-4.898 1.194-11.548 2.383-23.082 3.566-34.603l18.971-.031zm.62 8.54h-4.978c-.77 7.49-1.545 14.97-2.326 22.445l5.055.054 2.249-22.5z"/><path fill="#A30046" fill-rule="nonzero" d="M173.702 133.373c3.876-3.96 8.404-5.652 15.11-5.652 15.878-.078 17.521 11.645 17.552 17.957 0 7.127-1.651 16.739-6.528 21.11-3.372 3.028-7.752 4.658-14.45 4.177-16.538-1.126-18.235-10.978-18.259-18.035-.015-6.025 1.768-14.596 6.575-19.557zm16.66 4.355l-4.977-.085c-.713 7.764-1.432 15.507-2.155 23.229l4.977.272c.719-7.78 1.437-15.585 2.155-23.416z"/><path fill="#A30046" d="M239.213 139.615c-5.287-.192-10.58-.368-15.878-.528-.682 8.235-1.37 16.42-2.062 24.557l5.109.496c.217-2.536.432-5.077.644-7.624l-2.784-.217c.243-3.188.48-6.382.714-9.58 5.339.28 10.678.58 16.017.9-.698 8.349-1.396 16.63-2.093 24.844-3.443 1.941-8.839 2.71-15.002 1.933-16.397-2.065-18.607-11.73-18.669-18.167-.039-7.67 1.427-16.148 7.644-22.188 4.125-3.882 9.529-6.126 17.212-6.134a55.52 55.52 0 0 1 10.272.97c-.382 3.624-.757 7.203-1.124 10.738z"/><path fill="#A30046" d="M266.348 140.717c-3.561-.16-7.117-.315-10.668-.466-.1.777-.202 1.639-.295 2.454a554.978 554.978 0 0 1 5.792 8.633c3.527 5.373 5.923 10.21 5.923 14.503 0 13.804-10.373 13.446-16.816 12.422a95.775 95.775 0 0 1-12.59-3.044l.86-10.364c4.104.455 8.205.942 12.304 1.46.093-.816.193-1.639.286-2.454a561.698 561.698 0 0 0-6.977-10.357c-2.411-3.478-4.38-7.717-4.396-10.947-.046-13.066 10.412-14.293 17.188-14.293 3.476.026 6.947.285 10.389.777-.341 3.897-.675 7.79-1 11.676z"/><path fill="#FFF" fill-rule="nonzero" d="M11.497 130.5h15.684s9.8-1.21 12.816 5.287a20.435 20.435 0 0 0-11.157-4.23c-6.783-.451-17.343-1.057-17.343-1.057zm21.987 21.87s6.435 4.185 6.536 8.812a27.217 27.217 0 0 0-6.536-8.811zm224.886-2.111s7.156 7.57 7.272 15.954a56.286 56.286 0 0 0-7.272-15.954zM45.044 130.205h11.962l-.403 4.325s.101-4.1-11.56-4.325zm19.498 0h11.963l-.403 4.325s.1-4.1-11.56-4.325zm28.856 31.389l9.14-.225-1.155 4.3s.954-4.09-7.985-4.075zm25.933-.66l9.14-.217-1.154 4.3s.93-4.099-7.986-4.083zm-10.792-30.729h11.955l-.395 4.325s.132-4.1-11.56-4.325zm-25.406 0h11.963l-.403 4.325s.1-4.1-11.56-4.325zM227.63 148.35l11.94.776-.675 4.294s.364-4.123-11.265-5.07zm-93.22-18.214h15.22s7.388-.155 10.706 2.034c3.318 2.19 4.652 4.659 5.124 6.343.543 1.92.85 3.899.915 5.893 0 0-2.721-8.035-9.195-11.32-5.054-2.577-20.42-2.95-22.77-2.95zm49.076-.605s8.373-1.74 13.575 1.203 7.388 7.096 7.838 14.65c0 0-1.132-7.399-5.73-10.869-4.597-3.47-6.783-5.14-15.683-4.984zm42.291-.078a44.362 44.362 0 0 1 13.048.38l-.682 7.322s0-4.876-.907-5.963c-.907-1.087-2.558-1.537-11.459-1.739zm25.864.38c4.719-.53 9.489-.4 14.172.389l-.737 7.53s.202-5.046-.977-6.133c-1.023-.94-2.79-1.553-12.458-1.785z"/><path fill="#F3BD48" fill-rule="nonzero" d="M177.54 70.27c.317.287.62.558.937.776a5.92 5.92 0 0 0 .264-.544 2.938 2.938 0 0 1-.28-.17c-.216-.195-.55-.45-.774-.653.147-.17.372-.473.62-.776.442-.621.969-1.405 1.341-1.957l.047-.403c.086-.88.128-1.764.124-2.648a18.196 18.196 0 0 1-2.055 3.51 17.02 17.02 0 0 1-1.55 1.8c.272.193.53.403.775.63.178.132.349.287.55.434zm-32.082-11.53c0-.14-.07-.271-.1-.411-.14.23-.315.438-.52.613-.977.776-1.023.986-1.419 2.391l-.039.14a21.852 21.852 0 0 0-.775 5.388 9.033 9.033 0 0 0 .628 3.944c.357-.233.729-.442 1.093-.644a5.924 5.924 0 0 0 1.915-1.429l.109-.155.186-.062a4.65 4.65 0 0 0 2.047-1.15c-.086-.155-.155-.31-.24-.457a34.511 34.511 0 0 1-2.838-8.207l-.047.04zm2.667 8.711a4.92 4.92 0 0 1-1.295.598l-.426.132-.264.357a5.148 5.148 0 0 1-1.666 1.211l-.303.171c-.52-2.019-.217-5.388.504-7.966l.039-.14c.302-1.102.364-1.304.775-1.692a34.02 34.02 0 0 0 2.636 7.33zm-7.466 5.008a7.416 7.416 0 0 1-2.915-2.78c-.1-.124-.186-.256-.279-.38-.21.776-.59 1.553-1.69 1.553-1.434 0-2.264-1.499-3.101-2.95-.613-1.119-1.248-2.268-2.008-2.438l-.14.248c-.558.978-1.248 2.19-2.892 2.19a4.196 4.196 0 0 1-.945-.117l-.194-.047-.124-.194a14.86 14.86 0 0 1-2.489-4.767 1.328 1.328 0 0 1-.674-1.552l.077-.404.403-.054c.158-.015.316-.015.473 0 1.675 0 2.249 1.436 2.714 2.593.176.537.438 1.043.775 1.498a9.43 9.43 0 0 0 .605-.629c.697-.776 1.488-1.638 2.744-1.638a3.33 3.33 0 0 1 1.481.38l.155.07.085.148c.248.411.489.83.73 1.258.427.81.911 1.588 1.449 2.329a2.767 2.767 0 0 1 2.403-1.297 3.393 3.393 0 0 1 2.094.777l.124.1.062.156c.18.49.39.97.628 1.436V65.006a17.054 17.054 0 0 1-5.676-3.743c-.186-.178-.403-.341-.627-.52a13.995 13.995 0 0 1-.512-.419c-.17-.147-.194-.163-.28-.248a23.239 23.239 0 0 1-2.418-3.013 15.21 15.21 0 0 0-3.101-3.555.96.96 0 0 1-.256 0 1.092 1.092 0 0 1-.682-.272l-.109-.07a8.444 8.444 0 0 0-5.024 3.82 21.37 21.37 0 0 0-2.326 6.762v.07c-.093.45-.155.9-.209 1.35v.311c0 .676 0 1.343-.093 2.003.09 2.68.702 5.317 1.799 7.764l.17.248c.264.389.527.777.776 1.211l.395.676v.256c1.085.238 2.192.358 3.303.357 5.682.016 11.296-2.857 15.32-5.535zm-20.157-8.362c1.109-5.326 2.496-8.54 6.466-9.875.285.177.617.267.953.256a16.578 16.578 0 0 1 2.698 3.206 23.107 23.107 0 0 0 2.504 3.106c.27.26.555.504.853.73.217.163.419.326.582.473a20.33 20.33 0 0 0 3.876 2.958 3.77 3.77 0 0 0-.59-.046 3.594 3.594 0 0 0-2.325.823c-.287-.458-.566-.955-.853-1.46-.287-.505-.48-.854-.775-1.273l-.21-.342-.356-.17a4.159 4.159 0 0 0-1.822-.459 4.317 4.317 0 0 0-3.194 1.755c-.07-.163-.14-.342-.21-.497-.488-1.227-1.232-3.105-3.434-3.105a5.117 5.117 0 0 0-.589 0l-.938.147-.194.932a2.144 2.144 0 0 0 .775 2.236 15.705 15.705 0 0 0 2.652 4.829l.294.372.458.109c.368.09.745.137 1.124.14a3.729 3.729 0 0 0 3.295-2.112c.398.545.756 1.118 1.07 1.716.868 1.553 1.853 3.346 3.752 3.354a2.185 2.185 0 0 0 1.807-.777 8.605 8.605 0 0 0 1.604 1.685c-3.876 2.4-8.861 4.751-13.877 4.751a14.796 14.796 0 0 1-2.962-.295c-2.48-4.65-3.28-9.052-2.419-13.167h-.015zm20.018-39.3c.666.45 1.325.916 1.984 1.398l-.193-.225a9.384 9.384 0 0 0-.597-.684 3.317 3.317 0 0 1-1.14-.636 1.86 1.86 0 0 0-.977-.474l.496.334.427.287z"/><path fill="#F3BD48" fill-rule="nonzero" d="M119.703 80.525a6.024 6.024 0 0 0-.976-1.257l-.202-.171v-.777c-.17-.28-.364-.566-.566-.87a12.039 12.039 0 0 1-1.504-2.732 8.978 8.978 0 0 1-.465-2.143c-.047-.318-.086-.652-.155-1.01a1.165 1.165 0 0 0-.155-.317 2.16 2.16 0 0 1-.31-.777 13.015 13.015 0 0 1 0-3.059c.054-.66.108-1.35.1-1.98 0-2.329 1.249-5.667 2.094-7.872l.17-.45.334-.885c.236-.738.534-1.455.891-2.143.15-.235.345-.438.574-.598.143-.106.27-.231.38-.372.224-.354.423-.722.597-1.103.156-.392.37-.759.635-1.087a6.593 6.593 0 0 1 4.8-2.01 6.869 6.869 0 0 1 3.015.721 3.467 3.467 0 0 0-.116-.83 3.716 3.716 0 0 0-2.326-2.33l-.388-.147a12.39 12.39 0 0 0-1.806-.489h-.093l.295.155c.054 0 .108.07.162.117l.148.124.046.186c.062.261.032.535-.085.777v.372l-.341.163a2.23 2.23 0 0 1-.97.187h-.837a.852.852 0 0 0-.395.062c-3.365 1.785-5.427 3.882-6.047 6.21l-.155.544-.543-.132h-.178c-.112.04-.23.06-.35.062a.775.775 0 0 1-.565-.24c-.07.24-.132.481-.178.652l-.047.186-1.775 2.19-.776 1.07a9.44 9.44 0 0 1-5.039.91c-2.97-.257-17.304 5.558-19.25 5.822-2.202.303-4.334 2.19-5.923 3.734-.093.342-.202.7-.217.777a7.927 7.927 0 0 1-.442 1.335 3.49 3.49 0 0 0-.334 1.188c-.028.57-.16 1.13-.387 1.654a13.139 13.139 0 0 0-.194 6.304c.149.461.26.934.333 1.413.194 1.149.303 2.46.535 3.517a25.049 25.049 0 0 0 2.008 3.035c.8.918 1.685 1.758 2.644 2.508.597.497 1.202 1.01 1.76 1.553a24.155 24.155 0 0 0 4.714 3.68c.976.582 2.015 1.18 3.1 1.754.237-.007.47.053.675.171.419.256.853.52 1.303.777l.45.201c.775.326 1.55.691 2.27 1.048 1.147.6 2.333 1.12 3.552 1.553 1.673.525 3.417.787 5.17.777 3.35.011 6.654-.788 9.63-2.33a2.58 2.58 0 0 1 .674-.232 1.65 1.65 0 0 0 .357-.11 4.112 4.112 0 0 0 1.054-1.078c.381-.55.853-1.03 1.396-1.421 2.62-5.046.287-11.731-1.714-16.358l-.062-.179zm-11.505-12.204a1.37 1.37 0 0 1 .248 0h-.225l-.55.07.527-.07zm-.17 7.934c-.667-.372-.923-1.553-.993-2.073a13.403 13.403 0 0 1 .24-4.93l.101-.38.38-.054h.14a.775.775 0 0 1 .775.543v.202a23.642 23.642 0 0 0 .225 6.071l.248 1.227-1.116-.606z"/><path fill="#F3BD48" fill-rule="nonzero" d="M192.541 77.963a53.76 53.76 0 0 1-.853-2.329 30.521 30.521 0 0 0-2.17-5.535 28.95 28.95 0 0 1-2.04-5.008l-.038-.116-.047-.117-.085-.217-.047-.117-.054-.108s-.039-.086-.062-.125a9.788 9.788 0 0 0-.132-1.483c-.86-5.193-2.93-7.173-4.752-7.864l-.078-.171a7.44 7.44 0 0 0 .07-1.32 9.885 9.885 0 0 0-1.38-4.41c-.155-.302-.287-.55-.388-.776-.1-.225-.17-.411-.263-.621-.775-1.887-1.791-4.224-4.101-5.652l-.132-.07h-.101a16.269 16.269 0 0 0-1.783-.776 9.984 9.984 0 0 0 1.612-2.33c.093-.155.171-.294.256-.426a14.878 14.878 0 0 0 2.094-4.83c.62-3.36.248-6.83-1.07-9.984a8.535 8.535 0 0 0 1.72-1.84l.233-.302.69-.653 1.55-1.46-.922-1.925-.403-.923c-.4-.802-.892-1.555-1.465-2.244a5.434 5.434 0 0 1-.45-.621 22.236 22.236 0 0 1-.775-2.679C176.26 7.36 174.539.714 167.662.714c-.817.003-1.631.1-2.426.288-3.102.706-5.187 2.593-6.87 4.114-.41.365-.775.691-1.131.994l-.946.776v.04a23.603 23.603 0 0 1-3.101 2.39c-.434.249-.86.443-1.35.676-.488.233-1.178.543-1.899.947a3.61 3.61 0 0 1-.38-.124c-.465-.148-1.038-.342-1.744-.528a46.286 46.286 0 0 0-6.551-1.056c-1.59-.14-3.016-.21-4.35-.21a22.944 22.944 0 0 0-10.132 1.996 33.828 33.828 0 0 1-7.885-8.106l-.279-.396-.597-.846-1-.28-.465-.131a10.12 10.12 0 0 0-2.714-.38c-.453.001-.906.027-1.356.077h-.156a7.386 7.386 0 0 0-1.48-.217h-.512a45.78 45.78 0 0 0-6.931.776c-1.039.17-2.031.334-2.814.427h-.853a6.527 6.527 0 0 0-2.07.295c-3.031.97-4.985 3.998-5.8 6.498a15.477 15.477 0 0 0-.627 3.207c-.062.489-.116.947-.202 1.397-.349 1.724-2.326 3.051-4.55 4.58-.265.09-.523.194-.776.311h-.054l-.411.086-1.256.248-.66 1.102-.31.513c-1.612 2.663-1.232 5.434 1.117 8.16l.256.302.116.218.357.652.628.396.287.186a12.748 12.748 0 0 0 6.977 1.949 18.444 18.444 0 0 0 6.203-1.134l-.194.249a12.705 12.705 0 0 1-2 1.762 26.083 26.083 0 0 0-2.877 2.485 7.119 7.119 0 0 0-.953 1.288c-.45.412-.993.839-1.55 1.281-.776.614-1.652 1.297-2.513 2.112-3.163 2.99-5.869 5.784-8.264 8.54l-.822.932a25.056 25.056 0 0 0-3.31 4.239c-.26.465-.46.96-.598 1.475l-.263.341c-.482.594-.9 1.237-1.248 1.918a39.845 39.845 0 0 0-2.722 8.54l-.062.256c-.077.342-.162.684-.24 1.017a13.66 13.66 0 0 0-.17 4.659c0 .248.046.497.062.776.015.28 0 .613 0 .963-.037.782-.009 1.567.085 2.344.146.781.37 1.546.667 2.283.116.318.201.567.263.776l.217.777c.977 3.416 1.814 6.366 3.652 9.316l.217.35c.53.918 1.129 1.795 1.79 2.624l.613.722c3.613 4.324 7.714 9.23 13.777 12.041h.163c5.093 2.011 11.079 4.162 17.77 4.162 2.002.002 4-.2 5.961-.606a22.664 22.664 0 0 0 7.683 1.444h.132c.77-.013 1.535-.101 2.287-.264h.233a7.289 7.289 0 0 0 1.55.559c2.333.512 4.714.772 7.102.776a24.086 24.086 0 0 0 4.496-.388 18.03 18.03 0 0 0 3.42-1.126 12.51 12.51 0 0 1 1.62-.59l.124.07.674.412h1.69a47.293 47.293 0 0 0 13.692-2.073l.085.147.07.11a18.137 18.137 0 0 0 6.202 5.837 13.549 13.549 0 0 0 4.272 1.732c1.284.335 2.604.515 3.93.535.488 0 .975-.034 1.458-.1 3.318-.482 6.474-2.61 7.675-3.502 5.427-4.045 7.986-11.413 9.149-16.886.27-1.426.421-2.873.45-4.324 0-.63.046-1.18.092-1.716.481-4.783-.876-8.354-1.961-11.219zm-2.186 10.675a38.954 38.954 0 0 0-.109 1.871 22.895 22.895 0 0 1-.372 3.72c-1.031 4.852-3.202 11.326-7.753 14.688a15.124 15.124 0 0 1-6.016 2.818 6.72 6.72 0 0 1-.892.062 13.279 13.279 0 0 1-3.054-.427 9.893 9.893 0 0 1-3.318-1.358 14.482 14.482 0 0 1-4.908-4.557l-.039-.07a7.77 7.77 0 0 1-1.34-3.315c-.218.132-.443.279-.652.427a8.782 8.782 0 0 1-.954.59c-4.186 1.653-10.024 2.39-13.955 2.39h-.635l-.14-.077a2.927 2.927 0 0 0-1.55-.435 8.867 8.867 0 0 0-3.171.885c-.871.398-1.78.705-2.714.917-1.253.23-2.525.338-3.799.326a29.42 29.42 0 0 1-6.295-.684 3.819 3.819 0 0 1-.938-.372 3.191 3.191 0 0 0-.775-.295c-.101.077-.171.124-.179.116l-.574.101c-.29.03-.582 0-.86-.085a10.63 10.63 0 0 1-1.256.178l.062.148a5.9 5.9 0 0 1-1.163-.155 18.275 18.275 0 0 1-6.714-1.553 25.55 25.55 0 0 1-6.28.776c-6.04 0-11.629-2.01-16.443-3.882-5.311-2.46-8.97-6.832-12.506-11.055l-.612-.738a18.347 18.347 0 0 1-1.473-2.174l-.217-.364c-1.55-2.555-2.326-5.14-3.249-8.416l-.224-.777a12.042 12.042 0 0 0-.342-1.017 9.373 9.373 0 0 1-.488-1.63 9.82 9.82 0 0 1-.093-1.685v-1.195l-.07-.823a10.472 10.472 0 0 1 .085-3.47l.303-1.29a37.094 37.094 0 0 1 2.442-7.763 7.85 7.85 0 0 1 .868-1.312c.244-.308.469-.63.675-.963.078-.155.135-.32.17-.49.063-.27.162-.531.295-.776a21.819 21.819 0 0 1 2.83-3.579c.294-.333.597-.66.876-.986 2.326-2.647 4.938-5.349 8.024-8.268.729-.69 1.504-1.297 2.256-1.894a26.516 26.516 0 0 0 2.078-1.747 2.19 2.19 0 0 0 .333-.474c.128-.247.287-.476.473-.683a23.353 23.353 0 0 1 2.48-2.135 14.241 14.241 0 0 0 2.645-2.407l.232-.295.287.07a.876.876 0 0 1 .52-.24c.953-1.072 3.256-3.882 3.263-6.04.011-.31-.042-.62-.155-.91a.885.885 0 0 0-.279-.364 3.936 3.936 0 0 0-1.054-.481 7.266 7.266 0 0 1-.876-.342 3.1 3.1 0 0 1-.682-.427c-.644.58-1.34 1.1-2.078 1.553a16.07 16.07 0 0 1-8.086 2.414 9.162 9.162 0 0 1-5.032-1.366l-.124-.078-.07-.132c-.184-.3-.397-.58-.635-.838-.776-.893-1.815-2.12-.776-3.882l.14-.217.248-.055a2.82 2.82 0 0 0 .62-.217c.263-.133.546-.22.837-.256l.481-.326c2.845-1.926 5.528-3.743 6.202-6.988.117-.59.179-1.149.248-1.684a11.56 11.56 0 0 1 .473-2.493c.411-1.257 1.59-3.548 3.427-4.138.305-.086.621-.126.938-.116h.644c.211.013.424.013.635 0 .869-.101 1.9-.272 2.985-.45a43.404 43.404 0 0 1 6.334-.777h.295c.283.017.564.064.837.14.193.052.39.085.59.1h.046l.628-.054c.333 0 .651-.062 1.008-.062a6.272 6.272 0 0 1 1.72.249l.202.054.125.171a37.758 37.758 0 0 0 10.008 9.837c.256.132.528.295.776.465 2.504-1.77 5.853-2.631 10.226-2.631 1.225 0 2.535.062 4.016.194 2.01.176 4.005.498 5.97.962.58.148 1.061.31 1.488.45a5.42 5.42 0 0 0 1.659.389 3.447 3.447 0 0 0 1.698-.551 12.755 12.755 0 0 1 1.643-.777c.52-.202 1.062-.497 1.644-.823a25.945 25.945 0 0 0 3.66-2.787l.953-.776c.419-.35.83-.73 1.233-1.087 1.511-1.367 3.1-2.78 5.225-3.269a7.13 7.13 0 0 1 1.613-.194c4.023 0 5.047 3.96 5.946 7.453.163.621.31 1.211.48 1.778.139.48.305.952.497 1.413.09.216.199.424.325.621.193.293.4.575.62.847.401.479.75 1 1.04 1.552l.178.388-.31.296c-.23.241-.44.5-.628.776a3.055 3.055 0 0 1-2.047 1.514h-.295a4.585 4.585 0 0 1-1.961-.544 19.981 19.981 0 0 1-2.217-1.335l-.69-.458c-.046.34-.046.685 0 1.025.046.358.066.718.062 1.079l.364-.086.318-.116.256.225c.626.504 1.301.944 2.015 1.312l.109.062.364.202.101.062.07.093a13.477 13.477 0 0 1 2.225 10.225 8.027 8.027 0 0 1-.667 1.887c0 .155 0 .318-.07.466a12.796 12.796 0 0 1-1.783 4.153c-.093.14-.17.288-.248.427-.077.14-.062.109-.093.163l.132-.046-.132.046a6.41 6.41 0 0 1-2.016 2.33 4.284 4.284 0 0 1-.914.419c.939.6 1.953 1.072 3.015 1.405.876.273 1.73.608 2.559 1.001 1.31.777 1.985 2.4 2.636 3.944.1.218.194.443.287.668.093.225.325.668.496.994.535.866.864 1.843.961 2.857.012.165.012.331 0 .497 0 .147-.039.295-.062.442-.106.35-.106.723 0 1.072l.264.559-.574.233-.318.116.055.117a3.75 3.75 0 0 1 1.356.652c.26.2.5.426.714.675.093.101.178.217.27.342h.117c1.923 0 2.721 3.579 2.977 5.124.07.488.098.982.086 1.475v.776c.179.09.325.234.418.412v.054a32.222 32.222 0 0 0 2.326 5.652 27.196 27.196 0 0 1 1.915 4.922c.271.862.59 1.693.93 2.578 1.086 2.787 2.202 5.628 1.838 9.642zm-16.553-66.837h-.62c.207.019.414.019.62 0z"/><path fill="#F3BD48" fill-rule="nonzero" d="M123.541 30.52c.3-.27.643-.485 1.016-.637l.403-.148a9.934 9.934 0 0 1 2.651-.303l.892-.093h1.008c.177.013.353.04.527.078.34.037.677.1 1.008.186a25.122 25.122 0 0 1 7.148 3.711 17.209 17.209 0 0 1 2.372 1.972 39.596 39.596 0 0 1 1.605 1.67l.078.092c.814.896 1.77 1.65 2.83 2.236.162.072.335.122.511.148a1.55 1.55 0 0 1 1.28.83l.077.156a42.746 42.746 0 0 1 8.218-.908c1.31-.002 2.618.089 3.915.271.419-.357.868-.667 1.302-.978.671-.445 1.292-.96 1.853-1.537.427-1.902 1.628-3.882 2.791-5.769l.66-1.071.27-.49a4.533 4.533 0 0 1 1.18-1.552h-.319c-1.426-.039-3.341-.085-3.396-.124-.33.211-.626.473-.876.776l-.054.055-.419.419-.17.163a8.578 8.578 0 0 1-1.845 1.553 3.694 3.694 0 0 1-1.884.543 3.248 3.248 0 0 1-2.939-1.848l-1.62.45-2.202.257c-.201-.536-2.783-1.095-2.581-1.941-1.597-1.18-2.326-3.936-4.52-4.915l-.419-.178a8.521 8.521 0 0 0-3.706-1.498l-1.55-.257v.047a11.443 11.443 0 0 0-2.342-.148 9.794 9.794 0 0 0-2.884-.31h-.217c-.628 0-2.109.124-2.752 1.289l-.403.73-.729 1.304h.48a4.338 4.338 0 0 0-1.852.667c-1.17.668-2.326 1.507-3.14 1.01l-1.729.776-.21.101c-.58.256-.984.435-1.294.606.238-.003.475.04.698.124.938.396 1.24 1.467 1.279 2.484zm6.706-7.128l.31-.559c.442-.776 1.55-.854 2.125-.893h.535c.38 0 .761.023 1.14.07 1.664.247 3.253.863 4.65 1.801a1.22 1.22 0 0 1-.17-.714v-.66l.714.078a6.979 6.979 0 0 1 5.605 4.223l.38.893-.962-.085a1.82 1.82 0 0 1-.418-.086c.487.421.946.875 1.372 1.359.258.308.497.632.713.97a6 6 0 0 0 .675.885 22.746 22.746 0 0 0 3.426 2.865c.132.086.295.171.466.264.654.274 1.19.772 1.511 1.405l.21.505-.489.24c-.319.165-.672.252-1.03.257a3.23 3.23 0 0 1-1.947-.877 2.976 2.976 0 0 0-1.046-.63h-.148l-.108-.092a44.712 44.712 0 0 1-3.605-3.673c-3.063-3.37-5.978-6.56-11.21-7.134-.567-.066-1.136-.1-1.706-.101h-1.148l.155-.31zm-21.18 2.64l.093.178-.047.202a9.774 9.774 0 0 1-1.426 3.315c.442-.281.93-.484 1.442-.598l1.914-.427.644-.543c.457-.396.868-.776 1.217-1.134.205-.2.397-.412.574-.636a1.931 1.931 0 0 1-1.341-1.087 5.109 5.109 0 0 0-.295-.42c-1.147-1.49-2.148-2.77-3.76-3.47l-.48-.21.154-.496a4.606 4.606 0 0 1 .83-1.553l-.713-.155.566-.73.612-.776a13.549 13.549 0 0 0 2.093-3.106l-.077.078-.83.908c.194-.388.396-.776.597-1.157-1.233 1.382-2.411 2.857-3.55 4.294a128.864 128.864 0 0 1-2.722 3.346 8.913 8.913 0 0 1 4.505 4.177zM186.26 82.07a23.566 23.566 0 0 0-4.07-10.333c0 .108-.085.202-.124.31a9.561 9.561 0 0 1-1.248 2.26c.44 1.024.732 2.107.868 3.214.465 3.253.132 7.267-.775 9.518a20.708 20.708 0 0 1-2.179 4.123c-1.915 2.662-4.729 4.44-7.458 6.04l-1.845 1.11c-1.233.776-2.504 1.553-3.776 2.197.164.15.261.36.272.582.418 2.228 1.845 3.929 4.38 5.194.798.373 1.67.564 2.55.56h.202a12.275 12.275 0 0 0 5.846-1.6c3.272-1.988 5.714-6.413 7.24-13.152.518-2.833.602-5.728.249-8.587-.031-.434-.077-.939-.132-1.436zm-32.67-21.901l-.217.248-.326-.054a1.34 1.34 0 0 1-.248-.086h-.132v.893c.244.129.505.22.776.272l.775.124.504-.59a1.927 1.927 0 0 0 .651-1.785l-.039-.249-.116-.21a2.194 2.194 0 0 0-1.55-1.086 1.548 1.548 0 0 0-.264 0h-.047a2.137 2.137 0 0 0-.775.14 5.862 5.862 0 0 1-.233-2.935v-.125l.093-.59.442-.582c.07-.085.148-.163.21-.248.347-.456.725-.886 1.132-1.29a3.874 3.874 0 0 1-.977-.504l-.124-.077-1.752-1.336.62-1.444a17.032 17.032 0 0 0-4.272-.14l-.14.063a6.143 6.143 0 0 1-1.17.442c-.542.13-1.09.232-1.644.303-.391.047-.78.117-1.163.21l-.31.1a19.91 19.91 0 0 1-2.38.637c-.56.14-1.11.311-1.651.512-.792.296-1.603.537-2.427.722l-.333.07s-.078-.046-.124-.062l-.303-.132-2.946-1.25.915 1.972-.969.163c-.41.062-.822.109-1.202.148.776.908 1.427 1.848 2.109 2.771 1.93 2.648 3.768 5.163 6.505 6.794 0-.078.046-.163.077-.241 1.078-3.44 2.326-7.344 6.202-7.826h.272l.201.179a7.939 7.939 0 0 1 2.047 4.068c.535 2.422 1.264 5.699 2.721 7.803l.303-.078c.995-.287 2.007-.51 3.031-.668a1.018 1.018 0 0 1-.039-.388v-.054l-.147-.086c-.675-.388-1.357-.776-1.396-.776l-1.062-.846V60.3a1.42 1.42 0 0 1-.922-1.374v-.249l.178-.178c.22-.222.517-.35.83-.358h.046c.506.011.968.293 1.21.738l.054.085v.11a1.15 1.15 0 0 1-.419 1.102.588.588 0 0 0-.085-.008zm-16.638-4.27a7.5 7.5 0 0 1-2.116-3.028l-.054-.124-.334-.715-.302-.66 1.14.482.248.109a4.907 4.907 0 0 1 2.325 3.361l.31 1.553-1.217-.978z"/><path fill="#F3BD48" fill-rule="nonzero" d="M174.213 92.714l.776-.574c.271-.202.659-.49.837-.652a.777.777 0 0 0 0-.132c.072-.423.233-.825.473-1.18.034-.05.073-.097.116-.14.11-.135.235-.258.372-.365.169-.127.345-.244.527-.35l.109-.07c.923-1.397 1.59-4.425 1.698-7.763a13.613 13.613 0 0 0-.38-4.309 2.973 2.973 0 0 0-.442-.605 22.54 22.54 0 0 0-.535-.59 29.89 29.89 0 0 1-.698-.777 8.083 8.083 0 0 0-2.605-2.383c-.438-.197-.9-.34-1.372-.427-.387-.086-.83-.171-1.364-.295a29.831 29.831 0 0 0-6.862-.777 26.589 26.589 0 0 0-8.574 1.32c-.59.21-1.16.47-1.706.776-1.201.645-2.271 1.328-3.395 2.05-.559.357-1.132.722-1.745 1.095-.457.287-.922.62-1.41.97-.623.47-1.273.903-1.947 1.297-.566.318-1.132.59-1.682.846-.396.194-.775.38-1.186.59-.442.222-.895.422-1.357.598l-.427.17c-.465.187-.922.42-1.41.66-.631.334-1.28.63-1.946.886-2.985 1.11-3.427 1.242-3.753 1.374-.163.062-1.698.699-2.132.908-.302.295-1.302 1.351-1.48 1.483-1.427 1.102-2.117 1.67-2.202 4.464-.124 4.006-.559 6.987-3.233 10.21a5.402 5.402 0 0 1-.28.341c.39.206.794.38 1.21.52.28 0 .59.039.954.039h1.093l.31.148c1.108 0 2.326-.148 3.101-.233.973-.11 1.934-.3 2.876-.567l.993-.318a29.74 29.74 0 0 1 2.876-.847l.48 1.033c-.12.082-.247.155-.38.217-.653.444-1.34.836-2.054 1.173l-.938.434c-.512.233-1 .466-1.48.715h.085l-.473.248a10.189 10.189 0 0 0 3.574-.357 31.666 31.666 0 0 0 3.1-.932c.613-.24 1.249-.497 1.931-.698.683-.202 1.287-.474 1.845-.637.322-.098.648-.178.977-.24.295-.055.613-.086.946-.117.46-.059.924-.09 1.388-.093.341 0 .674 0 1.008.046l.636.055h-.24l.705.062-1.155 1.017-.83.73h1.55c.442-.094 3.264-.645 3.699-.777l.581-.132c.644-.147 1.334-.318 2.008-.45a23.032 23.032 0 0 0 3.28-.963c.916-.351 1.814-.75 2.69-1.195l.387-.195 1.42-.683c.115-.062.247-.108.371-.17.962-.443 1.946-.87 2.908-1.282 2.907-1.296 5.682-2.484 7.783-4.2zm-23.731 9.208l.085-.093.597-.062-.682.155z"/><path fill="#A30046" fill-rule="nonzero" d="M133.232 21.932h-.535c-.59.04-1.682.094-2.124.893l-.31.56-.17.31h1.108c.57.001 1.14.035 1.705.1 5.234.575 8.149 3.766 11.211 7.136a44.713 44.713 0 0 0 3.605 3.672l.109.093h.147c.388.135.745.35 1.046.629a3.23 3.23 0 0 0 1.946.877 2.323 2.323 0 0 0 1.032-.256l.488-.24-.21-.505a2.986 2.986 0 0 0-1.511-1.406c-.17-.093-.333-.178-.465-.264a22.746 22.746 0 0 1-3.427-2.864 6 6 0 0 1-.675-.885 9.37 9.37 0 0 0-.713-.97 14.174 14.174 0 0 0-1.372-1.36c.136.045.276.074.419.086l.961.085-.38-.893a6.979 6.979 0 0 0-5.566-4.215l-.652-.109v.66c-.018.25.042.5.17.714a11.333 11.333 0 0 0-4.65-1.8 9.074 9.074 0 0 0-1.187-.048zm7.342 2.718c.334.285.721.502 1.14.636.193.195.387.427.597.684l.193.225a65.79 65.79 0 0 0-1.984-1.398l-.427-.287-.496-.334c.365.057.706.222.977.474zM152.8 60.277c.08.037.163.066.248.086l.326.054.217-.248a.59.59 0 0 1 .07-.07 1.15 1.15 0 0 0 .418-1.103v-.108l-.054-.086a1.41 1.41 0 0 0-1.21-.737h-.085c-.312.007-.61.135-.83.357l-.178.179v.248a1.42 1.42 0 0 0 .923 1.374v.9-.892l.155.046zm-27.98-13.904l-.046-.187-.148-.124-.147-.109-.302-.155c-.341-.07-.675-.124-1-.178-.605-.094-1.179-.163-1.683-.233h-.217c-.132.085-.263.17-.387.264a20.333 20.333 0 0 0-3.97 3.175 8.666 8.666 0 0 0-1.566 2.415c-.16.39-.29.792-.388 1.203l-.442 1.366-.162.621a.775.775 0 0 0 .566.241c.119-.001.236-.022.349-.062h.178l.543.132.155-.544c.65-2.329 2.682-4.44 6.047-6.21a.852.852 0 0 1 .395-.063h.837a2.23 2.23 0 0 0 .97-.186l.34-.163v-.373c.128-.257.156-.553.078-.83zm-16.157 23.112v-.1a.775.775 0 0 0-.775-.544h-.124l-.38.054-.1.38a13.403 13.403 0 0 0-.241 4.93c.07.505.326 1.7.992 2.073l1.101.598-.248-1.226a23.642 23.642 0 0 1-.225-6.072v-.093zm48.238-10.178c.359.286.798.452 1.256.474a1.078 1.078 0 0 0 1.109-.909v-.248c-.202-.83-1-.986-1.55-1.095l-.202-.046-.303-.063-.224.21c-.257.3-.367.698-.303 1.087v.442l.217.148zm16.925 1.755a2.07 2.07 0 0 0 1.59-1.312l.084-.241-.124-.233a1.31 1.31 0 0 0-1.155-.776 1.287 1.287 0 0 0-1.1.652 1.555 1.555 0 0 0 .069 1.607l.217.372.419-.07zm.72-1.864h-.085.086zm-12.287 2.516l.108-.109v-.147c.122-.399.048-.831-.201-1.165a1.48 1.48 0 0 0-1.179-.52c-.294 0-.583.069-.845.202l-.233.108v.07h-.178v.544c-.014.352.118.695.365.947.31.304.728.472 1.162.466.374.01.735-.133 1-.396zm2.744 1.125h.217c.682-.21.977-.846.876-1.902v-.248l-.194-.155a1.929 1.929 0 0 0-1.147-.427c-.417 0-.812.192-1.07.52l-.17.217.054.264v.132c.07.536.271 1.592 1.434 1.6zm7.722 1.04l.217.21a1.55 1.55 0 0 0 1.078.459 1.472 1.472 0 0 0 1.131-.56 2.23 2.23 0 0 0 .404-1.84v-.17l-.124-.132a1.387 1.387 0 0 0-.993-.513c-1.07 0-1.55 1.46-1.643 2.229l-.07.318zm1.116-1.583c.045-.058.095-.112.148-.163a1.04 1.04 0 0 0-.156.163h.008zm0 .039a.932.932 0 0 0-.116.186c.026-.064.057-.127.093-.186h.023zm-.14.217v.047l-.038.077.039-.124zm-.209.536zM134.837 52.87a7.5 7.5 0 0 0 2.116 3.028l1.233.947-.31-1.553a4.907 4.907 0 0 0-2.326-3.362l-.248-.108-1.178-.45.302.66.333.714.078.124z"/><path fill="#A30046" fill-rule="nonzero" d="M188.556 79.004c-.341-.886-.659-1.716-.93-2.578a27.196 27.196 0 0 0-1.915-4.922 32.221 32.221 0 0 1-2.326-5.652v-.055a.954.954 0 0 0-.419-.411v-.776a8.84 8.84 0 0 0-.085-1.475c-.256-1.553-1.054-5.125-2.977-5.125h-.116c-.121.003-.241.021-.357.055l-.295.093-.085.303v.194c-1.078 3.757-2.271 7.274-5.008 9.138a15.767 15.767 0 0 0-5.094-2.376 19.075 19.075 0 0 0 2.04-4.945c.27-.878.55-1.786.875-2.617a25.433 25.433 0 0 0 5.59-1.63l.318-.117.574-.233-.264-.559a1.835 1.835 0 0 1 0-1.07c0-.148.047-.296.062-.443a3.654 3.654 0 0 0 0-.497 6.644 6.644 0 0 0-1.078-2.842 23.72 23.72 0 0 1-.496-.994c-.155-.333-.186-.45-.287-.667-.65-1.553-1.325-3.106-2.636-3.944a19.584 19.584 0 0 0-2.511-1.056 12.613 12.613 0 0 1-3.016-1.405c-.093-.07-.194-.125-.28-.194l-.116-.101h-.155a2.323 2.323 0 0 0-.325 0c-.195 0-.389.032-.574.093h-.186c-.225-.187-.194-.287-.178-.357.09-.25.217-.482.38-.691.202-.288.376-.595.519-.916.581-1.444.69-3.362-.372-4.395l-.303-.295-.372.194c-.13.075-.253.158-.372.249l-.295.202a.109.109 0 0 1 0-.047c.644-1.646 1.256-3.206 2.567-3.983h.178a2.022 2.022 0 0 0 1.124-.365l.147-.093.31-.163v-.341c.01-.504-.11-1.001-.348-1.444a.613.613 0 0 0 .14-.148.777.777 0 0 0 .061-.73l-.062-.147-.124-.101a2.231 2.231 0 0 0-1.41-.59 1.55 1.55 0 0 0-.931.318c-.5.426-.903.956-1.179 1.553l-.271.489-.659 1.071c-1.163 1.902-2.365 3.882-2.791 5.769a11.277 11.277 0 0 1-1.86 1.584c-.435.31-.884.62-1.303.978a27.872 27.872 0 0 0-3.915-.272c-2.762.037-5.515.34-8.218.908l-.078-.155a1.55 1.55 0 0 0-1.279-.83 1.975 1.975 0 0 1-.512-.148 11.073 11.073 0 0 1-2.83-2.236l-.077-.093a39.596 39.596 0 0 0-1.605-1.67 17.209 17.209 0 0 0-2.372-1.971 25.122 25.122 0 0 0-7.172-3.727 6.969 6.969 0 0 0-1.007-.186 3.747 3.747 0 0 0-.528-.078h-1.007l-.892.093a9.934 9.934 0 0 0-2.651.303 2.01 2.01 0 0 0-.652.963l-.217.698.729.055h.248a4.97 4.97 0 0 0 1.016-.117c-.093.211-.146.438-.155.668l-.047.66h.66c.576-.055 1.148-.148 1.712-.28.45-.085.908-.186 1.396-.24a7.688 7.688 0 0 0-.675 3.253c.027.268.095.53.202.776.074.163.124.335.147.513v.38c0 .994-.054 2.33.69 3.105.328.33.777.51 1.24.497h.784l-.155-.683c-.535-2.376.077-5.698 1.806-6.987a21.102 21.102 0 0 1 3.59 2.469l.558.465a8.946 8.946 0 0 1 2.132 2.236 1.448 1.448 0 0 0-.395-.124c-.23 0-.454.062-.652.179l-.209.116-.062.233c-.488 1.762-.52 3.106-.093 4.022l-1.489.372a24.43 24.43 0 0 1-6.024 1.08c-.498 0-.995-.036-1.488-.11l-1.093-.178.473 1.002a3.31 3.31 0 0 0 3.287 1.824 15.85 15.85 0 0 0 3.403-.528c.427-.1.838-.194 1.225-.271.77-.171 1.526-.394 2.264-.668.682-.25 1.379-.46 2.086-.629a18.214 18.214 0 0 0 2.325-.613l.334-.101a9.71 9.71 0 0 1 1.55-.303c.522-.066 1.04-.16 1.551-.28.293-.081.578-.188.853-.318.223-.122.463-.209.713-.256a18.58 18.58 0 0 1 2.093-.109c2.66.051 5.3.482 7.838 1.281a3.179 3.179 0 0 0-2.434 1.662l-.178.419.364.28c.29.225.648.348 1.016.349a3.4 3.4 0 0 0 1.442-.443 4.105 4.105 0 0 1 1.03-.388c.77-.116 1.548-.176 2.327-.178 1.149-.004 2.294.131 3.41.403-3.356 1.452-6.822 2.966-9.016 5.777l-.085.124v.147c-.349 2.213.775 3.106 1.714 3.797.319.226.612.486.876.776l.14.17h.208c2.326.405 4.373.66 6.35.91l2.48.31a18.34 18.34 0 0 1-2.325 6.987c-1.76-.116-3.101-.17-4.411-.17-1.14 0-2.287 0-3.536.124a1.554 1.554 0 0 0-.07-.202l-.154-.598a.775.775 0 0 0-.776-.56 1.9 1.9 0 0 0-1.55 1.158v.1c-.012.131 0 .263.039.389-1.024.157-2.037.38-3.032.667l-.302.078c-1.458-2.104-2.186-5.38-2.721-7.802a7.939 7.939 0 0 0-2.047-4.069l-.202-.178h-.271c-3.876.481-5.094 4.386-6.202 7.826 0 .077-.055.163-.078.24-2.737-1.63-4.574-4.146-6.504-6.793-.683-.924-1.373-1.863-2.11-2.772a23.674 23.674 0 0 0-2.279-2.468h-.054c-.178-.101-.364-.187-.543-.28a6.869 6.869 0 0 0-3.015-.722 6.593 6.593 0 0 0-4.792 2.042c-.265.328-.48.694-.635 1.087-.174.38-.373.749-.597 1.102a1.932 1.932 0 0 1-.38.373c-.229.16-.424.363-.574.598a13.784 13.784 0 0 0-.891 2.143l-.334.885-.17.45c-.845 2.205-2.117 5.535-2.094 7.872 0 .63-.046 1.32-.1 1.98a13.015 13.015 0 0 0 0 3.059c.051.276.157.54.31.776.067.098.12.205.155.319.07.357.108.69.155 1.009.067.73.223 1.45.465 2.143.38.972.886 1.89 1.504 2.733.202.302.395.59.566.869v.776l.202.171c.38.374.708.797.976 1.258l.07.109c2 4.658 4.334 11.311 1.714 16.358a5.873 5.873 0 0 0-1.396 1.42c-.282.422-.64.788-1.054 1.08a1.65 1.65 0 0 1-.357.108 2.58 2.58 0 0 0-.674.233 20.777 20.777 0 0 1-9.63 2.33 16.957 16.957 0 0 1-5.17-.777 27.588 27.588 0 0 1-3.551-1.553 46.952 46.952 0 0 0-2.272-1.048l-.45-.202c-.45-.256-.883-.52-1.302-.776a1.27 1.27 0 0 0-.675-.17 46.607 46.607 0 0 1-3.1-1.755 24.155 24.155 0 0 1-4.714-3.68 37.531 37.531 0 0 0-1.76-1.553 19.184 19.184 0 0 1-2.644-2.508 25.049 25.049 0 0 1-2.008-3.035c-.326-.575-.62-1.118-.868-1.553a41.294 41.294 0 0 1-2.326-5.334 16.037 16.037 0 0 1-.69-4.402c0-.481-.062-.963-.1-1.452a9.04 9.04 0 0 0-.195-1.118 4.999 4.999 0 0 1-.163-1.156c.05-.45.15-.894.303-1.32.1-.342.21-.691.279-1.056l.163-.839c.271-1.397.527-2.725.845-3.975.226-.915.503-1.817.83-2.701 2.674-5.047 6.729-9.263 9.985-12.648a93.73 93.73 0 0 1 2.775-2.779c2.908-2.81 5.862-5.372 8.986-8.09l.17-.147a38.48 38.48 0 0 1 4.28-3.106 38.766 38.766 0 0 0 4.652-3.392l1.659-1.483-.256.054-1.915.427c-.512.114-1 .316-1.442.598a9.774 9.774 0 0 0 1.411-3.214l.047-.202-.093-.179a8.913 8.913 0 0 0-4.505-4.184 128.864 128.864 0 0 0 2.721-3.347c1.14-1.436 2.326-2.911 3.551-4.293-.201.38-.403.776-.597 1.157l.83-.908.077-.078a13.549 13.549 0 0 1-2.093 3.105l-.612.777-.566.73.713.155c-.374.46-.656.986-.83 1.553l-.155.496.48.21c1.613.699 2.614 1.98 3.761 3.47.105.135.203.275.295.42.251.553.748.956 1.34 1.087h.117c.775 0 1.17-.653 1.473-1.126.079-.127.164-.248.256-.365a16.077 16.077 0 0 1 2.062-1.731c1.597-1.22 3.256-2.47 3.683-3.758.294-.87-.876-2.88-1.272-3.37a30.743 30.743 0 0 0-4.28-4.114c-.41-.35-.813-.683-1.185-1.017l-.086-.07c-1.077-.94-2.41-2.112-3.876-2.112a2.752 2.752 0 0 0-2.326 1.49c-.705 1.258-1.318 2.578-1.915 3.883-1.868 4.013-3.628 7.763-7.567 9.44a.777.777 0 0 0-.465.815c-.713.32-1.453.58-2.21.777-1.19.344-2.42.527-3.659.543h-.581a4.47 4.47 0 0 1-3.264-1.312 2.959 2.959 0 0 1-.52-.885l.869-.605c2.326-1.63 5.016-3.479 6.567-6.281.309-.553.568-1.133.775-1.732a6.709 6.709 0 0 0 .248-1.684c.013-.365.052-.728.116-1.087a6.875 6.875 0 0 1 1.69-3.688l.109-.1.132-.102a3.673 3.673 0 0 1 1.48-.69 41.492 41.492 0 0 1 6.699-.932h1.752c1.122-.044 2.244.1 3.318.427.23.073.452.164.667.271a4.656 4.656 0 0 0 1.775 1.895c.27.18.53.378.776.59a.901.901 0 0 1 .07.163c.082.227.205.438.364.62.436.407.9.783 1.388 1.127.34.264.69.543 1.015.83.504.45 1 .909 1.496 1.367a31.338 31.338 0 0 0 4.443 3.625l.21.132c1.077.684 3.1 1.965 4.65 1.965a1.991 1.991 0 0 0 2.048-2.058l.038-.396-.349-.178a2.757 2.757 0 0 0-.674-.225 18.297 18.297 0 0 1 7.412-1.36 32.98 32.98 0 0 1 12.598 2.633 31.554 31.554 0 0 1 8.117 4.945 1.888 1.888 0 0 0-.667 2.003l.132.334h.465c.613 0 .97-.512 1.264-.932.121-.191.267-.366.434-.52.18-.05.365-.076.55-.077.162-.01.321.03.458.116a.342.342 0 0 1 .07.24c0 .11-.132.21-.434.412a1.458 1.458 0 0 0-.876 1.895c.12.521.581.893 1.116.9.775 0 1.512-.699 2.28-1.475l.255-.248.458-.45c.876-.862 1.55-1.553 2.953-1.553h.458c.212.132.414.28.605.442.466.436 1.03.755 1.643.932 2.155 2.205 2.605 7.321.9 10.357l-.117.062a1.318 1.318 0 0 0-.628.489l-.116.178v.202c.03.313.03.627 0 .94-.07.374-.07.759 0 1.133l.132.365h.488c1.264 0 1.923-1.149 2.442-2.073l.326-.551c.35-.55.663-1.124.938-1.716.3-.598.524-1.232.667-1.886a13.477 13.477 0 0 0-2.225-10.225l-.07-.093-.1-.063-.365-.201-.109-.062a11.914 11.914 0 0 1-2.016-1.313l-.255-.225-.318.117-.365.085a7.712 7.712 0 0 0-.062-1.079 3.817 3.817 0 0 1 0-1.025l.69.458c.71.493 1.45.939 2.218 1.336a4.585 4.585 0 0 0 1.961.543h.295a3.055 3.055 0 0 0 2.077-1.46c.189-.274.399-.534.628-.776l.31-.295-.178-.388a8.79 8.79 0 0 0-1.039-1.553 10.24 10.24 0 0 1-.62-.846 3.985 3.985 0 0 1-.325-.621 13.133 13.133 0 0 1-.497-1.413c-.17-.567-.318-1.157-.48-1.778-.9-3.494-1.923-7.453-5.947-7.453a7.13 7.13 0 0 0-1.612.194c-2.148.489-3.714 1.902-5.226 3.268-.403.358-.814.738-1.232 1.087l-.954.777a25.945 25.945 0 0 1-3.66 2.787c-.58.326-1.1.567-1.643.823-.543.256-1.047.481-1.644.776-.507.33-1.093.52-1.697.551a5.42 5.42 0 0 1-1.66-.388c-.426-.14-.907-.303-1.488-.45a41.888 41.888 0 0 0-5.923-.885 45.015 45.015 0 0 0-4.016-.194c-4.373 0-7.753.862-10.226 2.632-.264-.171-.535-.334-.775-.466a37.758 37.758 0 0 1-10.01-9.837l-.123-.17-.202-.055a6.272 6.272 0 0 0-1.721-.248c-.357 0-.674 0-1.008.062l-.628.054h-.046c-.2-.015-.397-.05-.59-.1a4.01 4.01 0 0 0-.891-.14h-.396a43.404 43.404 0 0 0-6.334.776c-1.085.178-2.116.35-2.984.45a5.117 5.117 0 0 1-.636 0h-.644c-.316-.01-.633.03-.938.117-1.837.59-3.016 2.88-3.426 4.138a11.56 11.56 0 0 0-.473 2.492c-.07.535-.132 1.094-.248 1.684-.652 3.23-3.334 5.047-6.203 6.988l-.48.326a2.564 2.564 0 0 0-.838.256 2.82 2.82 0 0 1-.62.217l-.248.055-.14.217c-1.046 1.74 0 2.966.776 3.882.238.258.451.54.635.839l.07.132.124.077a9.162 9.162 0 0 0 5.032 1.367 16.07 16.07 0 0 0 8.086-2.415 14.042 14.042 0 0 0 2.078-1.553 3.1 3.1 0 0 0 .682.427c.284.133.577.247.876.342.373.107.729.27 1.055.481.123.095.22.221.279.365.112.29.165.598.155.909 0 2.173-2.326 4.968-3.264 6.04a.876.876 0 0 0-.52.24l-.287-.07-.232.296a14.241 14.241 0 0 1-2.644 2.406 23.353 23.353 0 0 0-2.48 2.135 3.292 3.292 0 0 0-.474.683 2.19 2.19 0 0 1-.333.474 26.515 26.515 0 0 1-2.062 1.693c-.776.597-1.55 1.203-2.256 1.894-3.101 2.92-5.714 5.62-8.025 8.268-.279.326-.581.652-.876.986a21.819 21.819 0 0 0-2.83 3.58 3.108 3.108 0 0 0-.294.776c-.035.17-.093.334-.17.489-.206.334-.432.655-.675.963a7.85 7.85 0 0 0-.868 1.312 37.094 37.094 0 0 0-2.442 7.763l-.303 1.29a10.472 10.472 0 0 0-.085 3.47l.07.822v1.196a9.82 9.82 0 0 0 .093 1.685c.113.557.276 1.103.488 1.63.124.334.248.676.341 1.017l.225.777c.938 3.276 1.675 5.861 3.249 8.415l.217.365c.438.76.93 1.486 1.473 2.174l.612.738c3.535 4.223 7.195 8.594 12.505 11.055 4.8 1.902 10.405 3.882 16.444 3.882a25.55 25.55 0 0 0 6.28-.776 18.275 18.275 0 0 0 6.714 1.552 5.9 5.9 0 0 0 1.163.156l-.062-.148a10.63 10.63 0 0 0 1.256-.178c.278.085.57.114.86.085l.574-.1s.077 0 .178-.117c.27.064.531.163.776.295.294.165.61.29.938.372 2.063.49 4.174.756 6.295.792a19.975 19.975 0 0 0 3.799-.326 13.942 13.942 0 0 0 2.713-.916 8.867 8.867 0 0 1 3.171-.885 2.927 2.927 0 0 1 1.55.435l.14.077h.636c3.923 0 9.76-.776 13.955-2.39.33-.177.649-.374.954-.59.209-.148.434-.296.65-.428a7.77 7.77 0 0 0 1.342 3.315l.039.07a14.482 14.482 0 0 0 4.907 4.557 9.893 9.893 0 0 0 3.319 1.359c1.027.252 2.081.38 3.14.38.308.001.616-.02.922-.062a15.124 15.124 0 0 0 6.016-2.818c4.536-3.362 6.706-9.836 7.753-14.689.225-1.227.35-2.47.372-3.719 0-.613.054-1.242.109-1.87.333-4.015-.783-6.856-1.83-9.635zm-58.65-41.971a.148.148 0 0 1 0 .062.474.474 0 0 0 0-.109v.047zm.364 2.461a.163.163 0 0 1 0-.047.582.582 0 0 1-.054-.093.194.194 0 0 0 0 .055l.047.077s.03.055.023.047l-.016-.039zm-.186 5.83l.109.078-.109-.077zm.357.241l-.14-.077.117.062.07.039-.047-.024zm3.45-1.28h.295-.295zm3.163-.738h.062l.396-.101-.458.1zm1.396-.357h.124-.124zm16.343-.901h.38-.38zm1.612.334l-.17-.039-.287-.062-.326-.07.613.132.255.062-.085-.023zm.489.116h.14l.565.148a3.372 3.372 0 0 1-.705-.124v-.024zm1.767 2.648h-.046l.093-.047-.047.047zm3.505-4.464a11.554 11.554 0 0 1-1.264-.319c.302-.233.628-.45.938-.675.116-.086.24-.171.349-.264.061.08.118.162.17.248l.117.163c.233.452.53.868.883 1.235a5.421 5.421 0 0 0-1.193-.365v-.023zm3.558 4.417h.155-.155zm-52.486-34.618l.263.225-.271-.24.008.015zm-.132-.101l.07.054h.046l-.116-.093-.233-.194a.077.077 0 0 1-.039 0l.272.233zm-.776-.606l.086.078-.109-.086.023.008zm-.085-.054l-.163-.101c.041.034.08.07.117.109l.046-.008zm-.45-.264l-.155-.07.156.07zm41.796 5.264l.581-.272c.65-.282 1.285-.601 1.9-.955a40.478 40.478 0 0 0 4.17-2.981c.45-.357.939-.777 1.458-1.312 1.497-1.413 3.35-3.168 5.218-3.168a3.16 3.16 0 0 1 1.698.512c1.015.637 1.62 2.943 2.07 4.659l.147.559c.246.836.538 1.658.876 2.46.35.802.643 1.627.876 2.47l.055.202.162.124c.13.093.25.2.357.318.014.237-.052.472-.186.668 0 0-.1.1-.326.1a5.423 5.423 0 0 1-2.457-1.094 5.618 5.618 0 0 1-1.543-1.724l.054-.132c.037-.067.068-.137.093-.21.143-.023.283-.059.419-.108.373-.122.71-.332.984-.613.283-.29.472-.657.543-1.056a1.91 1.91 0 0 0-1.38-2.042c-.077-.264-.147-.528-.217-.776l-.512.365a6.902 6.902 0 0 0-2.186 3.02l.093-.156.132.063a15.92 15.92 0 0 0-1 6.917 9.582 9.582 0 0 0-2.721 1.033 3.105 3.105 0 0 0-.497-.691 1.775 1.775 0 0 0-.635-.435 1.549 1.549 0 0 0-.481-.101 4.259 4.259 0 0 0-1.272-.256 7.995 7.995 0 0 1-.589-.45c-.209-.171-.465-.373-.713-.544l-.264-.17a46.126 46.126 0 0 0-6.248-3.487c.413-.275.845-.519 1.294-.73l.047-.007zM94.328 26.078l-.333.062.55-.093-.217.031zm12.66 76.644l-.449-.047c.147 0 .302.039.458.047h-.008zm3.567-.07l-.659.062c.326 0 .651-.054.97-.093l-.31.03zm1.768-.249c-.357.07-.714.125-1.078.171.202 0 .388-.062.582-.093l.496-.078h.1-.1zm.333-.062l.876-.194-.876.194zm4.411-1.413h.055l.14-.062-.195.062zm60.666-33.547a18.196 18.196 0 0 0 2.055-3.509c.004.884-.038 1.768-.124 2.647l-.047.404a13.75 13.75 0 0 1-.775 3.308l-.116.287a5.92 5.92 0 0 1-.264.543c-.318-.24-.62-.512-.938-.776-.163-.148-.334-.303-.512-.45a7.43 7.43 0 0 0-.775-.63 17.021 17.021 0 0 0 1.473-1.816l.023-.008zm-34.33-5.916l.024-.132c.395-1.405.442-1.552 1.419-2.39.205-.176.38-.383.52-.614 0 .14.069.272.1.411a34.511 34.511 0 0 0 2.837 8.206c.086.148.156.303.24.459a4.65 4.65 0 0 1-2.046 1.149l-.186.062-.109.155a5.924 5.924 0 0 1-1.914 1.428c-.365.202-.737.412-1.094.645a9.033 9.033 0 0 1-.628-3.944c.043-1.836.316-3.66.814-5.427l.024-.008zm-15.079-11.521c-.147-.062-.302-.109-.457-.163h-.093c.147.023.364.085.55.163zm-.814-.256zm-2.69-.117h-.108.108zm-1.388.427l.117-.054-.124.054h.007zm-.201.101l-.186.086.132-.062.054-.024zm-.186.086h-.093.093zm-.651.411zm-.404 27.057v-.319l-.395-.675a18.06 18.06 0 0 0-.775-1.211l-.17-.249a20.691 20.691 0 0 1-1.8-7.763c.055-.66.101-1.328.094-2.003v-.311c.054-.45.116-.9.209-1.35v-.07a21.37 21.37 0 0 1 2.326-6.763 8.444 8.444 0 0 1 5.024-3.82l.108.07c.19.167.43.263.682.272a.96.96 0 0 0 .256 0 15.21 15.21 0 0 1 3.101 3.556 23.239 23.239 0 0 0 2.42 3.012c.084.085.185.17.278.248.093.078.341.28.512.42.17.14.442.341.628.52a17.054 17.054 0 0 0 5.675 3.742v2.942a13.255 13.255 0 0 1-.628-1.436l-.062-.155-.124-.101a3.393 3.393 0 0 0-2.093-.776 2.767 2.767 0 0 0-2.404 1.296 19.36 19.36 0 0 1-1.45-2.329 48.6 48.6 0 0 0-.728-1.258l-.085-.147-.156-.07a3.33 3.33 0 0 0-1.48-.38c-1.256 0-2.047.869-2.745 1.638a9.43 9.43 0 0 1-.605.628 5.298 5.298 0 0 1-.775-1.498c-.465-1.157-1.039-2.593-2.713-2.593a2.477 2.477 0 0 0-.473 0l-.403.054-.078.404a1.328 1.328 0 0 0 .675 1.553 14.859 14.859 0 0 0 2.535 4.813l.124.163.194.047c.31.075.627.114.945.116 1.644 0 2.326-1.21 2.892-2.189l.14-.248c.775.17 1.395 1.32 2.008 2.437.775 1.452 1.636 2.95 3.1 2.95 1.102 0 1.482-.776 1.691-1.552.093.124.178.256.28.38a7.416 7.416 0 0 0 2.914 2.78c-4.023 2.678-9.675 5.55-15.343 5.55a15.376 15.376 0 0 1-3.302-.34l-.024.015zm17.437 28.345l-.163.047.163-.047zm1.38-.512l.147-.055h.054l-.201.055zm1.015-.404l.419-.155-.419.155zm.706-.264h-.109l.24-.078-.131.078zm6.76 0h.489-.489zm1.38-.109l.45-.046-.45.046zm1.504-.163l.45-.062.34-.047-.79.11zm2.644-.411l.775-.148-.775.148zm2.078-.435l.178-.047.318-.07-.496.117zm1.682-.45h-.062.062l.116-.04h.086l-.202.04zm4.907-5.124c-.124.062-.255.108-.372.17l-1.418.684-.388.194c-.875.445-1.773.844-2.69 1.195a23.032 23.032 0 0 1-3.28.963c-.674.132-1.364.303-2.008.45l-.581.132c-.434.101-3.256.652-3.698.777h-1.55l.829-.73 1.155-1.017-.706-.062h.24l-.635-.055c-.333 0-.667-.046-1.008-.046-.464.003-.927.034-1.388.093-.333 0-.65.062-.945.116-.33.063-.656.144-.977.241-.559.163-1.14.373-1.845.637-.706.264-1.318.458-1.93.698-.861.303-1.978.66-3.102.932-1.16.33-2.371.45-3.574.357l.473-.248h.039c.48-.249.969-.482 1.48-.715l.938-.434c.714-.337 1.401-.73 2.055-1.173.132-.062.259-.135.38-.217l-.48-1.033c-.973.234-1.933.516-2.877.847l-.992.318c-1.354.46-2.752.778-4.171.947l-.776.07c-.635.062-1.364.124-2.085.148h-.915c-.419 0-.775 0-1.101-.047a5.605 5.605 0 0 1-.59-.07 7.158 7.158 0 0 1-1.596-.644c-.31-.156-.62-.31-.946-.45l.062-.063c.413-.424.793-.859 1.14-1.304.499-.634.947-1.306 1.34-2.01a13.214 13.214 0 0 0 1.551-8.192 20.455 20.455 0 0 0-1.783-5.783 46.4 46.4 0 0 0-1.256-3.393h1.458c2.612 0 6.334-.225 9.187-1.281.633-.25 1.251-.536 1.853-.854.496-.249.969-.482 1.457-.683l.434-.179c.43-.16.849-.343 1.256-.551.396-.21.776-.396 1.218-.598.442-.202 1.077-.52 1.612-.823a19.892 19.892 0 0 0 1.86-1.242c.474-.35.962-.699 1.45-1.002.49-.302 1.164-.73 1.714-1.087 1.132-.73 2.202-1.413 3.419-2.065l.341-.178a13.1 13.1 0 0 1 1.458-.614 26.659 26.659 0 0 1 8.768-1.366c2.348-.01 4.69.25 6.978.776.413.103.82.232 1.217.388l.248.164.225.155.814.574.21-.124c.563.312 1.109.654 1.635 1.025l.349.24c.656.516 1.28 1.07 1.868 1.662a8.083 8.083 0 0 1 2.605 2.383c.21.249.45.52.698.777.248.256.357.388.535.59.172.182.32.386.442.605.355 1.407.484 2.862.38 4.31-.109 3.345-.776 6.373-1.698 7.763l-.109.07a5.077 5.077 0 0 0-.527.35c-.137.107-.262.229-.372.364-.043.043-.082.09-.116.14-.24.355-.401.757-.473 1.18a.777.777 0 0 1 0 .132c-.179.163-.566.45-.838.652l-.775.575c-2.116 1.715-4.876 2.903-7.8 4.153-1.03.49-2.015.916-2.976 1.359l-.024-.023zm22.646-6.048c-1.55 6.739-3.969 11.164-7.24 13.151a12.275 12.275 0 0 1-5.846 1.6h-.155a5.947 5.947 0 0 1-2.551-.56c-2.535-1.265-3.962-2.965-4.38-5.193a.847.847 0 0 0-.272-.582c1.272-.653 2.543-1.437 3.776-2.198l1.845-1.11c2.73-1.6 5.543-3.377 7.458-6.04a20.708 20.708 0 0 0 2.179-4.123c.915-2.251 1.248-6.265.775-9.518a11.798 11.798 0 0 0-.868-3.214 9.561 9.561 0 0 0 1.248-2.26c.039-.108.085-.201.124-.31a23.567 23.567 0 0 1 4.055 10.334c.054.497.1.97.14 1.444.349 2.864.26 5.765-.264 8.602l-.024-.023z"/><path fill="#FFF" fill-rule="nonzero" stroke="#FFF" stroke-width="2.5" d="M28.538 107.854h3.249c2.868 0 3.93 1.894 3.93 3.881v.567a2.82 2.82 0 0 1-1.55 2.865c1.046.505 1.55 1.436 1.55 3.043v.87c0 2.702-1.279 4.223-4.148 4.223h-3.015l-.016-15.45zm2.217 6.35h1.032c1.473 0 1.86-.776 1.86-2.174 0-1.397-.496-2.088-1.954-2.088h-.907l-.03 4.262zm0 6.91h.954c1.783 0 1.907-1.087 1.907-2.609 0-1.521-.279-2.329-1.884-2.329h-.977v4.938zm12.66-13.26h3.56c2.627 0 3.876 1.552 3.876 4.541 0 1.786-.497 3.106-1.908 3.882l2.388 7.065h-2.325l-2.063-6.615h-1.318v6.615h-2.21v-15.488zm2.218 6.91h1.256c1.55 0 1.783-.87 1.783-2.408 0-1.537-.263-2.414-1.892-2.414h-1.147v4.821zm12.56-3.262a3.716 3.716 0 0 1 3.713-3.718 3.716 3.716 0 0 1 3.714 3.718v8.176a3.716 3.716 0 0 1-3.714 3.718 3.716 3.716 0 0 1-3.713-3.718v-8.176zm2.217 8.176a1.497 1.497 0 1 0 2.992 0v-8.176a1.497 1.497 0 1 0-2.992 0v8.176zm12.676-8.176a3.72 3.72 0 0 1 1.804-3.361 3.71 3.71 0 0 1 3.811 0 3.72 3.72 0 0 1 1.804 3.361v8.176a3.72 3.72 0 0 1-1.804 3.361 3.71 3.71 0 0 1-3.811 0 3.72 3.72 0 0 1-1.804-3.361v-8.176zm2.21 8.176a1.502 1.502 0 1 0 3 0v-8.176c.04-.562-.237-1.1-.718-1.394a1.502 1.502 0 0 0-2.283 1.394v8.176zm12.807-11.824h2.217v7.049h.047l3.233-7.065h2.21l-3.017 6.21 3.582 9.317H94.05l-2.566-6.91-1.194 2.237v4.658h-2.217l.03-15.496zm14.893 0h2.217v13.26h4.38v2.22h-6.597v-15.48zm13.746 8.936l-3.04-8.936h2.327l1.783 6.148h.03l1.784-6.148h2.326l-3.04 8.936v6.544h-2.209l.039-6.544zm11.955-8.936h2.124l3.341 9.316h.047v-9.316h2.217v15.48h-2.085l-3.388-9.316h-.047v9.316h-2.21v-15.48zm32.042 12.018a3.577 3.577 0 0 1-3.52 3.587c-1.69 0-3.644-.823-3.644-3.65v-8.54a3.465 3.465 0 0 1 1.028-2.568 3.455 3.455 0 0 1 2.577-.995 3.51 3.51 0 0 1 2.58 1.075 3.52 3.52 0 0 1 .979 2.62v.87h-2.217v-.737a1.453 1.453 0 0 0-1.365-1.608c-1.108 0-1.364.777-1.364 1.802v7.91c0 .894.34 1.554 1.34 1.554a1.364 1.364 0 0 0 1.389-1.553v-.777h2.217v1.01zm7.319-8.37a3.72 3.72 0 0 1 1.804-3.361 3.71 3.71 0 0 1 3.81 0 3.72 3.72 0 0 1 1.805 3.361v8.176a3.72 3.72 0 0 1-1.804 3.361 3.71 3.71 0 0 1-3.811 0 3.72 3.72 0 0 1-1.804-3.361v-8.176zm2.21 8.176a1.502 1.502 0 1 0 3 0v-8.176c.04-.562-.237-1.1-.718-1.394a1.502 1.502 0 0 0-2.283 1.394v8.176zm12.807-11.824h2.217v13.26h4.38v2.22h-6.597v-15.48zm13.676 0h2.217v13.26h4.38v2.22h-6.597v-15.48zm13.676 0h6.597v2.088h-4.38v4.542h3.822v2.088h-3.822v4.542h4.38v2.22h-6.597v-15.48zm13.544 3.648a3.716 3.716 0 0 1 3.713-3.718 3.716 3.716 0 0 1 3.714 3.718v.777h-2.217v-.777a1.497 1.497 0 1 0-2.993 0v8.176a1.497 1.497 0 1 0 2.993 0v-2.912h-1.752v-1.956h3.97v4.868a3.716 3.716 0 0 1-3.715 3.718 3.716 3.716 0 0 1-3.713-3.718v-8.176zm15.025-3.648h6.597v2.088h-4.38v4.542h3.815v2.088h-3.815v4.542h4.38v2.22h-6.597v-15.48z"/><path fill="#8A1E41" fill-rule="nonzero" d="M28.538 107.854h3.249c2.868 0 3.93 1.894 3.93 3.881v.567a2.82 2.82 0 0 1-1.55 2.865c1.046.505 1.55 1.436 1.55 3.043v.87c0 2.702-1.279 4.223-4.148 4.223h-3.015l-.016-15.45zm2.217 6.35h1.032c1.473 0 1.86-.776 1.86-2.174 0-1.397-.496-2.088-1.954-2.088h-.907l-.03 4.262zm0 6.91h.954c1.783 0 1.907-1.087 1.907-2.609 0-1.521-.279-2.329-1.884-2.329h-.977v4.938zm12.66-13.26h3.56c2.627 0 3.876 1.552 3.876 4.541 0 1.786-.497 3.106-1.908 3.882l2.388 7.065h-2.325l-2.063-6.615h-1.318v6.615h-2.21v-15.488zm2.218 6.91h1.256c1.55 0 1.783-.87 1.783-2.408 0-1.537-.263-2.414-1.892-2.414h-1.147v4.821zm12.56-3.262a3.716 3.716 0 0 1 3.713-3.718 3.716 3.716 0 0 1 3.714 3.718v8.176a3.716 3.716 0 0 1-3.714 3.718 3.716 3.716 0 0 1-3.713-3.718v-8.176zm2.217 8.176a1.497 1.497 0 1 0 2.992 0v-8.176a1.497 1.497 0 1 0-2.992 0v8.176zm12.676-8.176a3.72 3.72 0 0 1 1.804-3.361 3.71 3.71 0 0 1 3.811 0 3.72 3.72 0 0 1 1.804 3.361v8.176a3.72 3.72 0 0 1-1.804 3.361 3.71 3.71 0 0 1-3.811 0 3.72 3.72 0 0 1-1.804-3.361v-8.176zm2.21 8.176a1.502 1.502 0 1 0 3 0v-8.176c.04-.562-.237-1.1-.718-1.394a1.502 1.502 0 0 0-2.283 1.394v8.176zm12.807-11.824h2.217v7.049h.047l3.233-7.065h2.21l-3.017 6.21 3.582 9.317H94.05l-2.566-6.91-1.194 2.237v4.658h-2.217l.03-15.496zm14.893 0h2.217v13.26h4.38v2.22h-6.597v-15.48zm13.746 8.936l-3.04-8.936h2.327l1.783 6.148h.03l1.784-6.148h2.326l-3.04 8.936v6.544h-2.209l.039-6.544zm11.955-8.936h2.124l3.341 9.316h.047v-9.316h2.217v15.48h-2.085l-3.388-9.316h-.047v9.316h-2.21v-15.48zm32.042 12.018a3.577 3.577 0 0 1-3.52 3.587c-1.69 0-3.644-.823-3.644-3.65v-8.54a3.465 3.465 0 0 1 1.028-2.568 3.455 3.455 0 0 1 2.577-.995 3.51 3.51 0 0 1 2.58 1.075 3.52 3.52 0 0 1 .979 2.62v.87h-2.217v-.737a1.453 1.453 0 0 0-1.365-1.608c-1.108 0-1.364.777-1.364 1.802v7.91c0 .894.34 1.554 1.34 1.554a1.364 1.364 0 0 0 1.389-1.553v-.777h2.217v1.01zm7.319-8.37a3.72 3.72 0 0 1 1.804-3.361 3.71 3.71 0 0 1 3.81 0 3.72 3.72 0 0 1 1.805 3.361v8.176a3.72 3.72 0 0 1-1.804 3.361 3.71 3.71 0 0 1-3.811 0 3.72 3.72 0 0 1-1.804-3.361v-8.176zm2.21 8.176a1.502 1.502 0 1 0 3 0v-8.176c.04-.562-.237-1.1-.718-1.394a1.502 1.502 0 0 0-2.283 1.394v8.176zm12.807-11.824h2.217v13.26h4.38v2.22h-6.597v-15.48zm13.676 0h2.217v13.26h4.38v2.22h-6.597v-15.48zm13.676 0h6.597v2.088h-4.38v4.542h3.822v2.088h-3.822v4.542h4.38v2.22h-6.597v-15.48zm13.544 3.648a3.716 3.716 0 0 1 3.713-3.718 3.716 3.716 0 0 1 3.714 3.718v.777h-2.217v-.777a1.497 1.497 0 1 0-2.993 0v8.176a1.497 1.497 0 1 0 2.993 0v-2.912h-1.752v-1.956h3.97v4.868a3.716 3.716 0 0 1-3.715 3.718 3.716 3.716 0 0 1-3.713-3.718v-8.176zm15.025-3.648h6.597v2.088h-4.38v4.542h3.815v2.088h-3.815v4.542h4.38v2.22h-6.597v-15.48z"/></g></svg>